<svg width="24" height="24" viewBox="0 0 24 24" fill="none" xmlns="http://www.w3.org/2000/svg">
<path d="M22.02 16.82L18.89 9.50002C18.32 8.16002 17.47 7.40002 16.5 7.35002C15.54 7.30002 14.61 7.97002 13.9 9.25002L12 12.66C11.6 13.38 11.03 13.81 10.41 13.86C9.77998 13.92 9.14999 13.59 8.63999 12.94L8.41999 12.66C7.70999 11.77 6.82999 11.34 5.92999 11.43C5.02998 11.52 4.25998 12.14 3.74998 13.15L2.01999 16.6C1.39999 17.85 1.45999 19.3 2.18999 20.48C2.91999 21.66 4.18998 22.37 5.57998 22.37H18.34C19.68 22.37 20.93 21.7 21.67 20.58C22.43 19.46 22.55 18.05 22.02 16.82Z" fill="#171717"/>
<path d="M6.97 8.38012C8.83672 8.38012 10.35 6.86684 10.35 5.00012C10.35 3.13339 8.83672 1.62012 6.97 1.62012C5.10327 1.62012 3.59 3.13339 3.59 5.00012C3.59 6.86684 5.10327 8.38012 6.97 8.38012Z" fill="#171717"/>
</svg>
