<?xml version="1.0" standalone="no"?><!DOCTYPE svg PUBLIC "-//W3C//DTD SVG 1.1//EN" "http://www.w3.org/Graphics/SVG/1.1/DTD/svg11.dtd"><svg t="1769677669930" class="icon" viewBox="0 0 1024 1024" version="1.1" xmlns="http://www.w3.org/2000/svg" p-id="8877" xmlns:xlink="http://www.w3.org/1999/xlink" width="48" height="48"><path d="M959.708 455.25c0 18.5-6.166 30.833-18.5 43.167L817.875 621.75c-12.333 12.333-24.667 18.5-43.167 18.5-37 0-61.666-24.667-61.666-61.667 0-18.5 6.166-30.833 18.5-43.166l18.5-18.5H589.708c-37 0-61.666-24.667-61.666-61.667s24.666-61.667 61.666-61.667h160.334l-18.5-18.5c-12.334-12.333-18.5-24.666-18.5-43.166 0-37 24.666-61.667 61.666-61.667 18.5 0 30.834 6.167 43.167 18.5l123.333 123.333c12.334 12.334 18.5 24.667 18.5 43.167zM790.75 177.5h-468.3l105.925 61.325C445.1 249.975 456.25 266.7 456.25 289v446h334.5c33.45 0 55.75 22.3 55.75 55.75s-22.3 55.75-55.75 55.75h-334.5v55.75c0 33.45-22.3 55.75-55.75 55.75-11.15 0-22.3-5.575-27.875-11.15L93.875 779.6c-2.74-2.74-13.478-7.54-19.665-16.42C67.808 753.992 66 740.67 66 735V121.75c0-22.3 15.38-42.434 33.45-50.175 6.937-2.971 16.725-5.575 22.3-5.575h669c33.45 0 55.75 22.3 55.75 55.75s-22.3 55.75-55.75 55.75z" fill="#000000" p-id="8878"></path></svg>